<svg width="1400" height="984" viewBox="0 0 1400 984" fill="none" xmlns="http://www.w3.org/2000/svg">
<path fill-rule="evenodd" clip-rule="evenodd" d="M306.658 6.32119C298.333 2.16407 289.156 0 279.852 0H60C26.8629 0 0 26.8629 0 60V924C0 957.137 26.863 984 60 984H1340C1373.14 984 1400 957.137 1400 924V60C1400 26.8629 1373.14 0 1340 0H1121.15C1111.84 0 1102.67 2.16407 1094.34 6.32119L1019.53 43.6788C1011.21 47.8359 1002.03 50 992.729 50H701H700H408.272C398.967 50 389.79 47.8359 381.465 43.6788L306.658 6.32119Z" fill="#F5F5F5"/>
</svg>
