<svg width="40" height="45" viewBox="0 0 40 45" fill="none" xmlns="http://www.w3.org/2000/svg">
<path fill-rule="evenodd" clip-rule="evenodd" d="M0 10.8134C0 10.4578 0.188832 10.129 0.495946 9.94974L17.3081 0.137836C17.9748 -0.251236 18.8122 0.229624 18.8122 1.00151V20.5123C18.8122 20.8697 18.6214 21.1999 18.3118 21.3785L10.2316 26.0391C9.5649 26.4237 8.73193 25.9425 8.73193 25.1729V19.0913C8.73193 18.6265 9.0601 18.2358 9.4791 18.0347C10.7083 17.4446 11.557 16.1882 11.557 14.7336C11.557 12.7124 9.91849 11.0738 7.89729 11.0738C5.87608 11.0738 4.23757 12.7124 4.23757 14.7336C4.23757 16.0368 4.91873 17.1809 5.94443 17.8293C6.29099 18.0483 6.54894 18.4061 6.54894 18.8161V27.5856C6.54894 27.943 6.35818 28.2733 6.04858 28.4519L1.49964 31.0756C0.832971 31.4602 0 30.979 0 30.2094V10.8134Z" fill="white"/>
<path fill-rule="evenodd" clip-rule="evenodd" d="M7.36832 30.4926C7.67985 30.3128 8.06396 30.3141 8.37424 30.4961L19.5286 37.0386C19.8397 37.221 20.225 37.2219 20.5369 37.0407L31.7261 30.5403C32.0377 30.3592 32.4226 30.3599 32.7336 30.5419L37.0577 33.0731C37.7155 33.4581 37.718 34.408 37.0622 34.7965L20.6025 44.5461C20.2901 44.7312 19.9019 44.7324 19.5884 44.5492L2.89936 34.7996C2.23663 34.4124 2.23909 33.4538 2.90381 33.0701L7.36832 30.4926ZM11.5824 29.7888C10.918 29.4026 10.9195 28.4425 11.585 28.0583L19.5929 23.4351C19.9042 23.2554 20.2879 23.2566 20.5981 23.4382L28.587 28.1146C29.2517 28.5037 29.2455 29.4666 28.5758 29.8471L20.5319 34.4175C20.2225 34.5933 19.8429 34.5915 19.5352 34.4126L11.5824 29.7888Z" fill="url(#paint0_linear_5_87)"/>
<path fill-rule="evenodd" clip-rule="evenodd" d="M21.1878 1.00151C21.1878 0.229622 22.0252 -0.251238 22.6919 0.137834L39.5041 9.94973C39.8112 10.129 40 10.4578 40 10.8134V30.2094C40 30.979 39.1671 31.4602 38.5004 31.0756L34.0156 28.4889C33.706 28.3103 33.5153 27.9801 33.5153 27.6226V14.4136C33.5153 14.0555 33.3238 13.7247 33.0133 13.5464L21.6898 7.04384C21.3793 6.86551 21.1878 6.53475 21.1878 6.17665V1.00151ZM22.6878 10.1277C22.0212 9.74273 21.1878 10.2239 21.1878 10.9937V20.5123C21.1878 20.8697 21.3786 21.1999 21.6882 21.3785L29.8327 26.0762C30.4993 26.4607 31.3323 25.9795 31.3323 25.2099V15.6961C31.3323 15.3389 31.1417 15.0087 30.8323 14.8301L22.6878 10.1277Z" fill="url(#paint1_linear_5_87)"/>
<circle cx="7.89728" cy="14.7336" r="1.60514" fill="#85CC16"/>
<defs>
<linearGradient id="paint0_linear_5_87" x1="19.9884" y1="23.4579" x2="19.9884" y2="44.5256" gradientUnits="userSpaceOnUse">
<stop stop-color="#85CC16"/>
<stop offset="1" stop-color="#0B542D"/>
</linearGradient>
<linearGradient id="paint1_linear_5_87" x1="30.5939" y1="0.739956" x2="30.5939" y2="30.4812" gradientUnits="userSpaceOnUse">
<stop stop-color="#85CC16"/>
<stop offset="1" stop-color="#0B542D"/>
</linearGradient>
</defs>
</svg>
