<svg width="231" height="39" viewBox="0 0 231 39" fill="none" xmlns="http://www.w3.org/2000/svg">
<path fill-rule="evenodd" clip-rule="evenodd" d="M0 9.44101C0 9.08542 0.18883 8.75657 0.495945 8.57734L14.9566 0.137835C15.6233 -0.251237 16.4607 0.22962 16.4607 1.0015V17.7835C16.4607 18.1409 16.2699 18.4712 15.9603 18.6498L9.14008 22.5836C8.47341 22.9681 7.64044 22.487 7.64044 21.7174V16.7115C7.64044 16.2467 7.9704 15.8576 8.38293 15.6435C9.41037 15.1104 10.1123 14.0368 10.1123 12.7994C10.1123 11.0308 8.67861 9.59711 6.91005 9.59711C5.1415 9.59711 3.70781 11.0308 3.70781 12.7994C3.70781 13.9093 4.27247 14.8873 5.13018 15.4618C5.47083 15.69 5.73033 16.0465 5.73033 16.4565V23.9727C5.73033 24.3301 5.53957 24.6604 5.22996 24.8389L1.49964 26.9906C0.83297 27.3751 0 26.8939 0 26.1243V9.44101Z" fill="white"/>
<path fill-rule="evenodd" clip-rule="evenodd" d="M6.38435 26.6249C6.69587 26.4451 7.07998 26.4464 7.39026 26.6284L17.0246 32.2793C17.3357 32.4618 17.721 32.4626 18.0329 32.2814L27.6974 26.6668C28.009 26.4858 28.3939 26.4864 28.7049 26.6685L32.2424 28.7392C32.9002 29.1242 32.9026 30.0742 32.2468 30.4626L18.0905 38.8479C17.7781 39.0329 17.39 39.0341 17.0765 38.8509L2.72287 30.4657C2.06013 30.0785 2.0626 29.1199 2.72732 28.7362L6.38435 26.6249ZM10.3211 26.0811C9.65679 25.6949 9.65826 24.7348 10.3238 24.3506L17.0809 20.4496C17.3922 20.2699 17.7759 20.271 18.0861 20.4526L24.8266 24.3983C25.4913 24.7874 25.4851 25.7503 24.8155 26.1307L18.0279 29.9873C17.7185 30.1631 17.3389 30.1612 17.0312 29.9824L10.3211 26.0811Z" fill="url(#paint0_linear_113_9)"/>
<path fill-rule="evenodd" clip-rule="evenodd" d="M18.5393 1.00151C18.5393 0.229626 19.3767 -0.251234 20.0434 0.137838L34.504 8.57734C34.8111 8.75658 35 9.08542 35 9.44101V26.1243C35 26.8939 34.167 27.3751 33.5003 26.9906L29.8262 24.8714C29.5166 24.6928 29.3259 24.3625 29.3259 24.0051V12.5918C29.3259 12.2337 29.1344 11.9029 28.8239 11.7246L19.0413 6.10687C18.7308 5.92855 18.5393 5.59778 18.5393 5.23969V1.00151ZM20.0393 8.87744C19.3727 8.49251 18.5393 8.97364 18.5393 9.74345V17.7835C18.5393 18.1409 18.7301 18.4712 19.0397 18.6498L25.9161 22.616C26.5828 23.0006 27.4158 22.5194 27.4158 21.7498V13.7138C27.4158 13.3565 27.2252 13.0264 26.9158 12.8478L20.0393 8.87744Z" fill="url(#paint1_linear_113_9)"/>
<circle cx="6.91011" cy="12.7994" r="1.40449" fill="#85CC16"/>
<path d="M43.94 26.1V23.5L55.44 23.52C56.0267 23.52 56.4733 23.3867 56.78 23.12C57.1 22.84 57.26 22.3933 57.26 21.78C57.26 21.1667 57.1 20.7267 56.78 20.46C56.4733 20.18 56.0267 20.04 55.44 20.04H48.28C46.8 20.04 45.6467 19.6867 44.82 18.98C44.0067 18.26 43.6 17.2067 43.6 15.82C43.6 14.4333 44.0067 13.3867 44.82 12.68C45.6467 11.96 46.8 11.6 48.28 11.6H59.52V14.2L48.62 14.18C48.0467 14.18 47.6 14.3133 47.28 14.58C46.96 14.8333 46.8 15.2467 46.8 15.82C46.8 16.3933 46.96 16.8133 47.28 17.08C47.6 17.3333 48.0467 17.46 48.62 17.46H55.78C57.26 17.46 58.4067 17.8267 59.22 18.56C60.0467 19.28 60.46 20.3533 60.46 21.78C60.46 23.1933 60.0467 24.2667 59.22 25C58.4067 25.7333 57.26 26.1 55.78 26.1H43.94ZM64.4864 30.5V28.2H70.5264C71.3264 28.2 71.7264 27.7933 71.7264 26.98V26H65.5464C64.3731 26 63.5131 25.7067 62.9664 25.12C62.4331 24.5333 62.1664 23.7733 62.1664 22.84V15.7H65.0664V22.5C65.0664 23.3 65.4664 23.7 66.2664 23.7H71.6264V15.7H74.6264V27.34C74.6264 28.2867 74.3531 29.0467 73.8064 29.62C73.2597 30.2067 72.4064 30.5 71.2464 30.5H64.4864ZM76.4944 26.1V23.8H86.2944C86.8544 23.8 87.1344 23.4867 87.1344 22.86C87.1344 22.2467 86.8544 21.94 86.2944 21.94H79.9544C78.7677 21.94 77.8677 21.6733 77.2544 21.14C76.641 20.5933 76.3344 19.8133 76.3344 18.8C76.3344 17.7733 76.641 16.9867 77.2544 16.44C77.881 15.88 78.781 15.6 79.9544 15.6H89.0744V17.9H80.0944C79.521 17.9 79.2344 18.18 79.2344 18.74C79.2344 19.02 79.3144 19.24 79.4744 19.4C79.6344 19.56 79.841 19.64 80.0944 19.64H86.8144C87.8544 19.64 88.6477 19.9133 89.1944 20.46C89.7544 20.9933 90.0344 21.7733 90.0344 22.8C90.0344 23.84 89.7544 24.6533 89.1944 25.24C88.6344 25.8133 87.841 26.1 86.8144 26.1H76.4944ZM97.0967 26C95.9367 26 95.0834 25.7133 94.5367 25.14C93.9901 24.5533 93.7167 23.7867 93.7167 22.84V18H90.7367V15.7H93.7167V12.54H96.6167V15.7H100.897V18H96.6167V22.48C96.6167 23.2933 97.0167 23.7 97.8167 23.7H101.457V26H97.0967ZM108.228 26.1C106.441 26.1 105.048 25.66 104.048 24.78C103.048 23.8867 102.548 22.58 102.548 20.86C102.548 19.1267 103.048 17.82 104.048 16.94C105.048 16.0467 106.441 15.6 108.228 15.6H113.228C114.401 15.6 115.294 15.88 115.908 16.44C116.534 16.9867 116.848 17.7733 116.848 18.8C116.848 20.8933 115.641 21.94 113.228 21.94H105.668C105.948 23.18 106.801 23.8 108.228 23.8H116.328V26.1H108.228ZM108.228 17.9C106.854 17.9 106.008 18.48 105.688 19.64H113.088C113.354 19.64 113.561 19.56 113.708 19.4C113.868 19.24 113.948 19.02 113.948 18.74C113.948 18.18 113.661 17.9 113.088 17.9H108.228ZM118.651 26V15.7H131.991C133.164 15.7 134.024 15.9933 134.571 16.58C135.117 17.1533 135.391 17.9133 135.391 18.86V26H132.491V19.22C132.491 18.4067 132.077 18 131.251 18H128.471V26H125.571V18H121.551V26H118.651ZM152.151 26.1C149.511 26.1 147.491 25.4933 146.091 24.28C144.691 23.0533 143.991 21.24 143.991 18.84C143.991 16.4533 144.691 14.6467 146.091 13.42C147.491 12.1933 149.511 11.5867 152.151 11.6L159.351 11.64V14.2H152.371C150.637 14.2 149.351 14.5667 148.511 15.3C147.671 16.0333 147.251 17.2133 147.251 18.84C147.251 20.4667 147.671 21.6533 148.511 22.4C149.351 23.1333 150.637 23.5 152.371 23.5H159.551V26.1H152.151ZM166.528 26.1C164.742 26.1 163.348 25.66 162.348 24.78C161.348 23.8867 160.848 22.58 160.848 20.86C160.848 19.1267 161.348 17.82 162.348 16.94C163.348 16.0467 164.742 15.6 166.528 15.6H171.528C172.702 15.6 173.595 15.88 174.208 16.44C174.835 16.9867 175.148 17.7733 175.148 18.8C175.148 20.8933 173.942 21.94 171.528 21.94H163.968C164.248 23.18 165.102 23.8 166.528 23.8H174.628V26.1H166.528ZM166.528 17.9C165.155 17.9 164.308 18.48 163.988 19.64H171.388C171.655 19.64 171.862 19.56 172.008 19.4C172.168 19.24 172.248 19.02 172.248 18.74C172.248 18.18 171.962 17.9 171.388 17.9H166.528ZM176.952 26V15.7H185.932C187.105 15.7 187.958 15.9933 188.492 16.58C189.038 17.1533 189.312 17.9133 189.312 18.86V26H186.412V19.2C186.412 18.4 186.012 18 185.212 18H179.852V26H176.952ZM196.765 26C195.605 26 194.751 25.7133 194.205 25.14C193.658 24.5533 193.385 23.7867 193.385 22.84V18H190.405V15.7H193.385V12.54H196.285V15.7H200.565V18H196.285V22.48C196.285 23.2933 196.685 23.7 197.485 23.7H201.125V26H196.765ZM207.896 26.1C206.109 26.1 204.716 25.66 203.716 24.78C202.716 23.8867 202.216 22.58 202.216 20.86C202.216 19.1267 202.716 17.82 203.716 16.94C204.716 16.0467 206.109 15.6 207.896 15.6H212.896C214.069 15.6 214.962 15.88 215.576 16.44C216.202 16.9867 216.516 17.7733 216.516 18.8C216.516 20.8933 215.309 21.94 212.896 21.94H205.336C205.616 23.18 206.469 23.8 207.896 23.8H215.996V26.1H207.896ZM207.896 17.9C206.522 17.9 205.676 18.48 205.356 19.64H212.756C213.022 19.64 213.229 19.56 213.376 19.4C213.536 19.24 213.616 19.02 213.616 18.74C213.616 18.18 213.329 17.9 212.756 17.9H207.896ZM218.319 26V15.7H226.199C227.359 15.7 228.212 15.9933 228.759 16.58C229.305 17.1533 229.579 17.9133 229.579 18.86V21H226.639V19.22C226.639 18.42 226.239 18.02 225.439 18.02H221.259V26H218.319Z" fill="url(#paint2_linear_113_9)"/>
<defs>
<linearGradient id="paint0_linear_113_9" x1="17.4822" y1="20.3156" x2="17.4822" y2="38.9875" gradientUnits="userSpaceOnUse">
<stop stop-color="#85CC16"/>
<stop offset="1" stop-color="#0B542D"/>
</linearGradient>
<linearGradient id="paint1_linear_113_9" x1="26.7696" y1="3.8147e-06" x2="26.7696" y2="27.1258" gradientUnits="userSpaceOnUse">
<stop stop-color="#85CC16"/>
<stop offset="1" stop-color="#0B542D"/>
</linearGradient>
<linearGradient id="paint2_linear_113_9" x1="137" y1="31" x2="137" y2="7" gradientUnits="userSpaceOnUse">
<stop stop-color="#0B542D"/>
<stop offset="1" stop-color="#81C917"/>
</linearGradient>
</defs>
</svg>
