<svg width="35" height="39" viewBox="0 0 35 39" fill="none" xmlns="http://www.w3.org/2000/svg">
<path fill-rule="evenodd" clip-rule="evenodd" d="M0 9.44101C0 9.08542 0.18883 8.75657 0.495945 8.57734L14.9566 0.137835C15.6233 -0.251237 16.4607 0.22962 16.4607 1.0015V17.7835C16.4607 18.1409 16.2699 18.4712 15.9603 18.6498L9.14008 22.5836C8.47341 22.9681 7.64044 22.487 7.64044 21.7174V16.7115C7.64044 16.2467 7.9704 15.8576 8.38293 15.6435C9.41037 15.1104 10.1123 14.0368 10.1123 12.7994C10.1123 11.0308 8.67861 9.59711 6.91005 9.59711C5.1415 9.59711 3.70781 11.0308 3.70781 12.7994C3.70781 13.9093 4.27247 14.8873 5.13018 15.4618C5.47083 15.69 5.73033 16.0465 5.73033 16.4565V23.9727C5.73033 24.3301 5.53957 24.6604 5.22996 24.8389L1.49964 26.9906C0.83297 27.3751 0 26.8939 0 26.1243V9.44101Z" fill="white"/>
<path fill-rule="evenodd" clip-rule="evenodd" d="M6.38434 26.6249C6.69587 26.4451 7.07998 26.4464 7.39026 26.6284L17.0246 32.2793C17.3357 32.4618 17.721 32.4626 18.0329 32.2814L27.6974 26.6668C28.009 26.4858 28.3939 26.4864 28.7049 26.6685L32.2424 28.7392C32.9002 29.1242 32.9026 30.0742 32.2468 30.4626L18.0905 38.8479C17.7781 39.0329 17.39 39.0341 17.0765 38.8509L2.72287 30.4657C2.06013 30.0785 2.0626 29.12 2.72732 28.7362L6.38434 26.6249ZM10.3211 26.0812C9.65679 25.6949 9.65826 24.7348 10.3238 24.3506L17.0809 20.4496C17.3922 20.2699 17.7759 20.271 18.0861 20.4526L24.8266 24.3983C25.4913 24.7874 25.4851 25.7503 24.8155 26.1308L18.0279 29.9873C17.7185 30.1631 17.3389 30.1613 17.0312 29.9824L10.3211 26.0812Z" fill="url(#paint0_linear_32_11)"/>
<path fill-rule="evenodd" clip-rule="evenodd" d="M18.5393 1.00151C18.5393 0.229623 19.3767 -0.251237 20.0434 0.137835L34.504 8.57734C34.8111 8.75657 35 9.08542 35 9.44101V26.1243C35 26.8939 34.167 27.3751 33.5003 26.9906L29.8262 24.8714C29.5166 24.6928 29.3259 24.3625 29.3259 24.0051V12.5917C29.3259 12.2337 29.1344 11.9029 28.8239 11.7246L19.0413 6.10687C18.7308 5.92854 18.5393 5.59778 18.5393 5.23968V1.00151ZM20.0393 8.87743C19.3727 8.49251 18.5393 8.97363 18.5393 9.74345V17.7835C18.5393 18.1409 18.7301 18.4712 19.0397 18.6498L25.9161 22.616C26.5828 23.0006 27.4158 22.5194 27.4158 21.7498V13.7138C27.4158 13.3565 27.2252 13.0264 26.9158 12.8478L20.0393 8.87743Z" fill="url(#paint1_linear_32_11)"/>
<circle cx="6.91011" cy="12.7994" r="1.40449" fill="#85CC16"/>
<defs>
<linearGradient id="paint0_linear_32_11" x1="17.4822" y1="20.3156" x2="17.4822" y2="38.9875" gradientUnits="userSpaceOnUse">
<stop stop-color="#85CC16"/>
<stop offset="1" stop-color="#0B542D"/>
</linearGradient>
<linearGradient id="paint1_linear_32_11" x1="26.7696" y1="0" x2="26.7696" y2="27.1258" gradientUnits="userSpaceOnUse">
<stop stop-color="#85CC16"/>
<stop offset="1" stop-color="#0B542D"/>
</linearGradient>
</defs>
</svg>
