<svg width="100" height="100" viewBox="0 0 100 100" fill="none" xmlns="http://www.w3.org/2000/svg">
<path d="M0 8.06451C0 3.61061 3.61061 0 8.06452 0H91.9355C96.3894 0 100 3.61061 100 8.06452V91.9355C100 96.3894 96.3894 100 91.9355 100H8.06451C3.61061 100 0 96.3894 0 91.9355V8.06451Z" fill="#85CC16"/>
<path d="M43.3871 40H34.9194L33.7903 44.6774H44.5968L43.3871 40Z" fill="white"/>
<path d="M64.0323 15.1613H76.2903V18.7097H64.0323V15.1613Z" fill="white"/>
<path d="M64.0323 20.8065H76.2903V24.1935H64.0323V20.8065Z" fill="white"/>
<path d="M14.1935 46.9355H85.8064V50.4839H14.1935V46.9355Z" fill="white"/>
<path d="M17.4194 52.5806H22.9032V86.9355H17.4194V52.5806Z" fill="white"/>
<path d="M77.2581 52.5806H82.7419V86.9355H77.2581V52.5806Z" fill="white"/>
<path d="M22.0968 14.5161C22.0968 13.6253 22.8189 12.9032 23.7097 12.9032H54.8387C55.7295 12.9032 56.4516 13.6253 56.4516 14.5161V36.2903C56.4516 37.1811 55.7295 37.9032 54.8387 37.9032H23.7097C22.8189 37.9032 22.0968 37.1811 22.0968 36.2903V14.5161Z" fill="white"/>
<path d="M24.5161 16.129C24.5161 15.6836 24.8772 15.3226 25.3226 15.3226H53.0645C53.5099 15.3226 53.871 15.6836 53.871 16.129V34.8387C53.871 35.2841 53.5099 35.6452 53.0645 35.6452H25.3226C24.8772 35.6452 24.5161 35.2841 24.5161 34.8387V16.129Z" fill="#85CC16"/>
<path d="M26.129 16.7742H52.4194V34.0323H26.129V16.7742Z" fill="white"/>
<path d="M64.0323 26.2903H76.2903V44.6774H64.0323V26.2903Z" fill="white"/>
<path d="M73.5484 39.5161C73.5484 41.3868 72.0319 42.9032 70.1613 42.9032C68.2906 42.9032 66.7742 41.3868 66.7742 39.5161C66.7742 37.6455 68.2906 36.129 70.1613 36.129C72.0319 36.129 73.5484 37.6455 73.5484 39.5161Z" fill="#85CC16"/>
<path d="M71.7742 39.5161C71.7742 40.4069 71.0521 41.129 70.1613 41.129C69.2705 41.129 68.5484 40.4069 68.5484 39.5161C68.5484 38.6253 69.2705 37.9032 70.1613 37.9032C71.0521 37.9032 71.7742 38.6253 71.7742 39.5161Z" fill="white"/>
<path d="M66.9355 30C66.9355 29.5546 67.2965 29.1935 67.7419 29.1935H72.5806C73.026 29.1935 73.3871 29.5546 73.3871 30V31.9355C73.3871 32.3809 73.026 32.7419 72.5806 32.7419H67.7419C67.2965 32.7419 66.9355 32.3809 66.9355 31.9355V30Z" fill="#85CC16"/>
<path d="M57.7419 52.5806H75.3226V62.5806H57.7419V52.5806Z" fill="white"/>
<path d="M63.0645 57.5C63.0645 56.921 63.5339 56.4516 64.1129 56.4516H68.7903C69.3693 56.4516 69.8387 56.921 69.8387 57.5C69.8387 58.079 69.3693 58.5484 68.7903 58.5484H64.1129C63.5339 58.5484 63.0645 58.079 63.0645 57.5Z" fill="#85CC16"/>
<path d="M57.7419 64.8387H75.3226V74.8387H57.7419V64.8387Z" fill="white"/>
<path d="M63.0645 69.7581C63.0645 69.1791 63.5339 68.7097 64.1129 68.7097H68.7903C69.3693 68.7097 69.8387 69.1791 69.8387 69.7581C69.8387 70.3371 69.3693 70.8064 68.7903 70.8064H64.1129C63.5339 70.8064 63.0645 70.3371 63.0645 69.7581Z" fill="#85CC16"/>
<path d="M57.7419 76.9355H75.3226V86.9355H57.7419V76.9355Z" fill="white"/>
<path d="M63.0645 81.8548C63.0645 81.2758 63.5339 80.8064 64.1129 80.8064H68.7903C69.3693 80.8064 69.8387 81.2758 69.8387 81.8548C69.8387 82.4338 69.3693 82.9032 68.7903 82.9032H64.1129C63.5339 82.9032 63.0645 82.4338 63.0645 81.8548Z" fill="#85CC16"/>
</svg>
